# xmcd
#
# Track frame offsets:
#       150
#       15255
#       35295
#       58863
#       74440
#       86833
#       100378
#       127655
#       150125
#       166170
#       182358
#       205610
#       226292
#       239026
#       251659
#       267709
#       285171
#       300606
#       320634
#
# Disc length: 4363 seconds
#
#
# Revision: 0
# Processed by: cddbd v1.5.1PL2 Copyright (c) Steve Scherf et al.
# Submitted via: Visual Ripper tool of Visual MP3 v4.18
#
DISCID=f5110913
DTITLE=Various Artist - Antologia Del Canto Nuevo
DYEAR=1994
DGENRE=Blues
TTITLE0=Various Artist - Napale - Las Ultimas Palabras
TTITLE1=Various Artist - Isabel Aldunate - Yo Te Nombro Libertad
TTITLE2=Various Artist - Santiago Del Nuevo Extremo - La Mitad Lejana
TTITLE3=Various Artist - Eduardo Peralta - El Hombre Es Una Flecha
TTITLE4=Various Artist - Cristina Gonzalez - 11 De Noviembre
TTITLE5=Various Artist - Osvaldo Torres - Por La Vida
TTITLE6=Various Artist - Sol Y Lluvia - Cancion Para El Otro Exilio
TTITLE7=Various Artist - Santiago Del Nuevo Extremo - A Mi Ciudad
TTITLE8=Various Artist - Ortiga - Tu Cantar
TTITLE9=Various Artist - Capri - Oda A Mi Guitarra
TTITLE10=Various Artist - Aquelarre - Valparaiso
TTITLE11=Various Artist - Wampara - Balada De Marzo
TTITLE12=Various Artist - Isabel Aldunate - Cuando Llega El Invierno
TTITLE13=Various Artist - Schwenke y Nilo - Mi Canto
TTITLE14=Various Artist - Amauta - Porque Cantamos
TTITLE15=Various Artist - Aquelarre - El Cautivo De Til-Til
TTITLE16=Various Artist - Grupo Abril - La Semilla
TTITLE17=Various Artist - Schwenke y Nilo - Hay Que Hacerse De Nuevo Cada Dia
TTITLE18=Various Artist - Ortiga - Cancion De La Esperanza
EXTD=
EXTT0=
EXTT1=
EXTT2=
EXTT3=
EXTT4=
EXTT5=
EXTT6=
EXTT7=
EXTT8=
EXTT9=
EXTT10=
EXTT11=
EXTT12=
EXTT13=
EXTT14=
EXTT15=
EXTT16=
EXTT17=
EXTT18=
PLAYORDER=
